<?xml version="1.0" encoding="utf-8"?>
<!-- Generator: Adobe Illustrator 16.0.0, SVG Export Plug-In . SVG Version: 6.00 Build 0)  -->
<!DOCTYPE svg PUBLIC "-//W3C//DTD SVG 1.1//EN" "http://www.w3.org/Graphics/SVG/1.1/DTD/svg11.dtd">
<svg version="1.1" id="Layer_1" xmlns="http://www.w3.org/2000/svg" xmlns:xlink="http://www.w3.org/1999/xlink" x="0px" y="0px"
	 width="595.279px" height="841.891px" viewBox="0 0 595.279 841.891" enable-background="new 0 0 595.279 841.891"
	 xml:space="preserve">
<g transform="translate(0 1)">
	<path fill="#FD9808" d="M273.691,283.802C192.033,339.249-0.517,300.94,10.573,458.206
		C20.654,589.262,217.237,616.48,317.039,610.432C721.295,589.262,607.377,57.984,273.691,283.802"/>
	<path fill="#FFDD09" d="M260.585,289.851C181.952,345.297-0.517,311.021,7.547,467.279
		c7.058,129.039,193.559,153.233,288.322,146.177C681.978,586.236,581.166,60,260.585,289.851"/>
	<path fill="#FFFFFF" d="M44.849,467.279c-9.073-156.258,174.404-121.982,252.028-177.429
		c49.397-35.284,93.755-53.43,132.063-57.462c-44.356-5.041-100.812,10.081-165.331,57.462
		C184.977,345.297,2.508,311.021,10.573,467.279c6.049,122.989,176.42,151.217,274.208,147.185
		C185.985,611.439,49.889,577.164,44.849,467.279"/>
	<path d="M290.828,621.521c-120.975,0-281.264-41.334-290.337-162.307c-8.064-113.917,84.682-134.08,166.339-150.21
		c39.316-8.064,76.617-16.13,101.819-33.268l0,0c94.763-64.52,186.501-75.609,250.013-28.227
		c57.463,42.34,80.65,125.007,57.463,201.624c-30.244,100.812-127.022,164.322-259.087,171.379
		C308.975,621.521,299.903,621.521,290.828,621.521z M426.925,238.437c-44.357,0-94.764,18.146-148.193,53.43l0,0
		c-27.219,20.163-66.536,28.227-107.868,36.292c-80.649,17.139-156.259,33.269-150.21,130.047
		c8.064,114.926,185.494,149.201,295.378,143.152c123.998-6.049,213.721-65.527,240.939-157.266
		c20.162-69.56,0-143.152-50.406-180.454C484.387,246.502,457.168,238.437,426.925,238.437z M273.691,283.802L273.691,283.802
		L273.691,283.802z"/>
	<path d="M504.549,621.521H101.303c-6.049,0-10.081-4.033-10.081-10.082s4.032-10.081,10.081-10.081H504.55
		c6.049,0,10.081,4.032,10.081,10.081C514.63,617.488,510.598,621.521,504.549,621.521z"/>
	<path d="M50.898,621.521H30.735c-6.049,0-10.081-4.033-10.081-10.082s4.032-10.081,10.081-10.081h20.163
		c6.049,0,10.081,4.032,10.081,10.081S56.947,621.521,50.898,621.521z"/>
	<path d="M585.198,621.521h-40.324c-6.049,0-10.081-4.033-10.081-10.082s4.032-10.081,10.081-10.081h40.324
		c6.05,0,10.081,4.032,10.081,10.081S591.248,621.521,585.198,621.521z"/>
	<path d="M121.466,591.277c-6.049,0-10.081-4.032-10.081-10.081v-60.487c0-6.049,4.032-10.081,10.081-10.081
		s10.081,4.032,10.081,10.081v60.487C131.546,587.245,127.514,591.277,121.466,591.277z"/>
	<path d="M121.466,490.467c-6.049,0-10.081-4.032-10.081-10.082v-10.081c0-6.049,4.032-10.081,10.081-10.081
		s10.081,4.032,10.081,10.081v10.081C131.546,486.433,127.514,490.467,121.466,490.467z"/>
	<path d="M60.979,550.952c-6.049,0-10.081-4.032-10.081-10.081v-60.487c0-6.049,4.032-10.081,10.081-10.081
		s10.081,4.032,10.081,10.081v60.487C71.06,546.92,67.027,550.952,60.979,550.952z"/>
	<path d="M91.222,379.573c-6.049,0-10.081-4.032-10.081-10.081v-30.244c0-6.049,4.032-10.082,10.081-10.082
		s10.081,4.032,10.081,10.082v30.244C101.303,375.541,97.27,379.573,91.222,379.573z"/>
	<path d="M171.87,550.952c-6.049,0-10.081-4.032-10.081-10.081v-20.162c0-6.049,4.032-10.081,10.081-10.081
		c6.05,0,10.082,4.032,10.082,10.081v20.162C181.952,546.92,177.92,550.952,171.87,550.952z"/>
	<path d="M222.277,530.79c-6.049,0-10.081-4.032-10.081-10.081v-50.406c0-6.049,4.032-10.081,10.081-10.081
		s10.081,4.032,10.081,10.081v50.406C232.358,526.758,228.325,530.79,222.277,530.79z"/>
	<path d="M222.277,369.492c-6.049,0-10.081-4.032-10.081-10.082v-50.406c0-6.049,4.032-10.081,10.081-10.081
		s10.081,4.032,10.081,10.081v50.406C232.358,365.46,228.325,369.492,222.277,369.492z"/>
	<path d="M343.251,419.898c-6.049,0-10.081-4.032-10.081-10.082v-20.162c0-6.049,4.032-10.081,10.081-10.081
		s10.081,4.032,10.081,10.081v20.162C353.332,415.866,349.3,419.898,343.251,419.898z"/>
	<path d="M343.251,540.871c-6.049,0-10.081-4.032-10.081-10.081v-80.649c0-6.049,4.032-10.081,10.081-10.081
		s10.081,4.032,10.081,10.081v80.649C353.332,536.839,349.3,540.871,343.251,540.871z"/>
	<path d="M484.387,298.923c-6.049,0-10.081-4.032-10.081-10.081v-40.325c0-6.049,4.032-10.081,10.081-10.081
		s10.081,4.032,10.081,10.081v40.325C494.468,294.891,490.436,298.923,484.387,298.923z"/>
	<path d="M484.387,561.034c-6.049,0-10.081-4.032-10.081-10.082v-40.324c0-6.049,4.032-10.081,10.081-10.081
		s10.081,4.032,10.081,10.081v40.324C494.468,557.002,490.436,561.034,484.387,561.034z"/>
	<path d="M544.874,389.654c-6.049,0-10.081-4.032-10.081-10.081v-10.081c0-6.049,4.032-10.082,10.081-10.082
		s10.081,4.032,10.081,10.082v10.081C554.955,385.622,550.923,389.654,544.874,389.654z"/>
	<path d="M544.874,339.249c-6.049,0-10.081-4.032-10.081-10.082v-40.325c0-6.049,4.032-10.081,10.081-10.081
		s10.081,4.032,10.081,10.081v40.325C554.955,335.216,550.923,339.249,544.874,339.249z"/>
	<path d="M393.657,298.923c-6.05,0-10.082-4.032-10.082-10.081v-50.406c0-6.049,4.032-10.082,10.082-10.082
		c6.049,0,10.081,4.032,10.081,10.082v50.406C403.739,294.891,399.705,298.923,393.657,298.923z"/>
	<path d="M413.82,601.358c-6.049,0-10.081-4.032-10.081-10.081v-50.406c0-6.049,4.032-10.081,10.081-10.081
		s10.081,4.032,10.081,10.081v50.406C423.9,597.326,419.867,601.358,413.82,601.358z"/>
	<path d="M302.926,621.521c-6.049,0-10.081-4.033-10.081-10.082v-40.324c0-6.049,4.032-10.081,10.081-10.081
		s10.081,4.032,10.081,10.081v40.324C313.007,617.488,308.975,621.521,302.926,621.521z"/>
</g>
<text transform="matrix(1 0 0 1 8.3137 706.4453)"><tspan x="0" y="0" font-family="'MyriadPro-Bold'" font-size="60">TECNOLÓGICOS </tspan><tspan x="439.973" y="0" font-family="'MyriadPro-Regular'" font-size="60">akshu</tspan></text>
</svg>
